<svg width="83" height="87" viewBox="0 0 83 87" fill="none" xmlns="http://www.w3.org/2000/svg">
<rect width="83" height="87" fill="#26E2B3"/>
<rect x="24.1368" y="61.6487" width="4.77012" height="5" fill="white"/>
<rect x="28.9069" y="61.6487" width="4.77012" height="5" fill="white"/>
<rect x="28.9069" y="56.6487" width="4.77012" height="5" fill="white"/>
<rect x="33.677" y="56.6487" width="4.77011" height="5" fill="white"/>
<rect x="38.4471" y="56.6487" width="4.77012" height="5" fill="white"/>
<rect x="33.677" y="56.6487" width="4.77011" height="5" fill="white"/>
<rect x="43.2173" y="56.6487" width="4.77011" height="5" fill="white"/>
<rect x="47.9873" y="56.6487" width="4.77011" height="5" fill="white"/>
<rect x="50.8495" y="56.6487" width="4.77011" height="5" fill="white"/>
<rect x="49.0179" y="17.6487" width="4.77012" height="5" fill="white"/>
<rect x="53.7881" y="17.6487" width="4.77011" height="5" fill="white"/>
<rect x="33.7537" y="78.1" width="4.77011" height="5" fill="white"/>
<rect x="53.7881" y="12.6487" width="4.77011" height="5" fill="white"/>
<rect x="30.5287" y="78" width="4.77011" height="5" fill="white"/>
<rect x="25.7587" y="78" width="4.77011" height="5" fill="white"/>
<rect x="20.0344" y="66" width="4.77011" height="5" fill="white"/>
<rect x="23.8506" y="57" width="4.77011" height="5" fill="white"/>
<rect x="20.0344" y="61" width="4.77011" height="5" fill="white"/>
<rect x="25.7587" y="57" width="4.77011" height="5" fill="white"/>
<rect x="20.0344" y="56" width="4.77011" height="5" fill="white"/>
<rect x="20.0344" y="22" width="39.1149" height="35" fill="white"/>
<rect x="25.1675" y="21.6487" width="4.77011" height="5" fill="#26E2B3"/>
<rect x="29.9375" y="21.6487" width="4.77012" height="5" fill="#26E2B3"/>
<rect x="20.3973" y="21.6487" width="4.77011" height="5" fill="#26E2B3"/>
<rect x="19.4432" y="21.6487" width="4.77011" height="5" fill="#26E2B3"/>
<rect x="19.4432" y="25.6487" width="4.77011" height="5" fill="#26E2B3"/>
<rect x="19.4432" y="28.6487" width="4.77011" height="5" fill="#26E2B3"/>
</svg>
